{"title":"Zverinice iz Rezije","uid":6546704,"size":4088958290,"categoryP":"video","categoryS":"movies","magnet":"?xt=urn:btih:7edf36d8758091a8e17e1fcc5949afc4bbe6290f&amp;dn=Zverinice+iz+Rezije&amp;tr=udp%3A%2F%2Ftracker.openbittorrent.com%3A80&amp;tr=udp%3A%2F%2Fopen.demonii.com%3A1337&amp;tr=udp%3A%2F%2Ftracker.coppersurfer.tk%3A6969&amp;tr=udp%3A%2F%2Fexodus.desync.com%3A6969","seeders":0,"leechers":2,"uploader":null,"files":10,"time":1310897711,"description":"Naziv..............: Zverinice iz Rezije\nÃ…Â½anr...............: Lutkovna predstava\nLeto...............: 1976\nFormat slike.......: 4:3\nJezik..............: Slovenski\n\n\nVideo\nFormat : MPEG-4 Visual\nFormat profile : Simple@L1\nFormat settings, Matrix : Default (H.263)\nCodec ID : DX50\nCodec ID/Hint : DivX 5\nDuration : 17mn 30s\nBit rate : 1 201 Kbps\nWidth : 720 pixels\nHeight : 576 pixels\nDisplay aspect ratio : 5:4\nFrame rate : 25.000 fps\nStandard : PAL\nColor space : YUV\nChroma subsampling : 4:2:0\nBit depth : 8 bits\nScan type : Progressive\nCompression mode : Lossy\nBits/(Pixel*Frame) : 0.116\nStream size : 150 MiB (89%)\nWriting library : Lavc51.40.4\n\nAudio\nFormat : MPEG Audio\nFormat version : Version 1\nFormat profile : Layer 3\nMode : Joint stereo\nMode extension : MS Stereo\nCodec ID : 55\nCodec ID/Hint : MP3\nDuration : 17mn 30s\nBit rate mode : Constant\nBit rate : 128 Kbps\nChannel(s) : 2 channels\nSampling rate : 48.0 KHz\nCompression mode : Lossy\nStream size : 16.0 MiB (10%)\nAlignment : Aligned on interleaves\nInterleave, duration : 24 ms (0.60 video frame)\nInterleave, preload duration : 24 ms","torrent":{"xt":"urn:btih:7edf36d8758091a8e17e1fcc5949afc4bbe6290f","amp;dn":"Zverinice+iz+Rezije","amp;tr":["udp%3A%2F%2Ftracker.openbittorrent.com%3A80","udp%3A%2F%2Fopen.demonii.com%3A1337","udp%3A%2F%2Ftracker.coppersurfer.tk%3A6969","udp%3A%2F%2Fexodus.desync.com%3A6969"],"infoHash":"7edf36d8758091a8e17e1fcc5949afc4bbe6290f","infoHashBuffer":{"type":"Buffer","data":[126,223,54,216,117,128,145,168,225,126,31,204,89,73,175,196,187,230,41,15]},"announce":[],"urlList":[]}}